{
  "accessors": [
    {
      "bufferView": 2,
      "componentType": 5126,
      "count": 65532,
      "max": [
        4.251469135284424,
        1.110582947731018,
        0.6747339963912964
      ],
      "min": [
        -4.247078895568848,
        -0.8335480093955994,
        0.042190998792648315
      ],
      "type": "VEC3"
    },
    {
      "bufferView": 2,
      "byteOffset": 786384,
      "componentType": 5126,
      "count": 65532,
      "max": [
        0.9999868869781494,
        0.9999955892562866,
        1.0
      ],
      "min": [
        -0.9999990463256836,
        -0.9999799728393555,
        -0.9999969005584717
      ],
      "type": "VEC3"
    },
    {
      "bufferView": 3,
      "componentType": 5126,
      "count": 65532,
      "max": [
        0.9999998211860657,
        0.9999995231628418,
        0.9998155236244202,
        1.0
      ],
      "min": [
        -0.9999997019767761,
        -0.9999889731407166,
        -0.9999718070030212,
        1.0
      ],
      "type": "VEC4"
    },
    {
      "bufferView": 1,
      "componentType": 5126,
      "count": 65532,
      "max": [
        0.9691479802131653,
        0.9841259717941284
      ],
      "min": [
        1.8000000636675395e-05,
        0.0009869999485090375
      ],
      "type": "VEC2"
    },
    {
      "bufferView": 0,
      "componentType": 5125,
      "count": 368910,
      "type": "SCALAR"
    },
    {
      "bufferView": 2,
      "byteOffset": 1572768,
      "componentType": 5126,
      "count": 65532,
      "max": [
        4.221259117126465,
        1.0999670028686523,
        0.670615017414093
      ],
      "min": [
        -4.246479034423828,
        -0.850400984287262,
        0.017014000564813614
      ],
      "type": "VEC3"
    },
    {
      "bufferView": 2,
      "byteOffset": 2359152,
      "componentType": 5126,
      "count": 65532,
      "max": [
        0.9999986886978149,
        0.9999977350234985,
        0.9999998807907104
      ],
      "min": [
        -0.9999980926513672,
        -0.999992847442627,
        -0.9999994039535522
      ],
      "type": "VEC3"
    },
    {
      "bufferView": 3,
      "byteOffset": 1048512,
      "componentType": 5126,
      "count": 65532,
      "max": [
        0.9999994039535522,
        0.9999687671661377,
        0.9995203018188477,
        1.0
      ],
      "min": [
        -0.9999985694885254,
        -0.999995231628418,
        -0.9999819993972778,
        -1.0
      ],
      "type": "VEC4"
    },
    {
      "bufferView": 1,
      "byteOffset": 524256,
      "componentType": 5126,
      "count": 65532,
      "max": [
        0.9999489784240723,
        0.9773390293121338
      ],
      "min": [
        0.0026730000972747803,
        1.4999999621068127e-05
      ],
      "type": "VEC2"
    },
    {
      "bufferView": 0,
      "byteOffset": 1475640,
      "componentType": 5125,
      "count": 353688,
      "type": "SCALAR"
    },
    {
      "bufferView": 2,
      "byteOffset": 3145536,
      "componentType": 5126,
      "count": 10704,
      "max": [
        4.253036022186279,
        1.110582947731018,
        0.6460239887237549
      ],
      "min": [
        -4.24562406539917,
        -0.7752429842948914,
        0.017274999991059303
      ],
      "type": "VEC3"
    },
    {
      "bufferView": 2,
      "byteOffset": 3273984,
      "componentType": 5126,
      "count": 10704,
      "max": [
        0.9999961853027344,
        0.9999830722808838,
        0.9999998807907104
      ],
      "min": [
        -0.9996481537818909,
        -0.9999624490737915,
        -0.9999986886978149
      ],
      "type": "VEC3"
    },
    {
      "bufferView": 3,
      "byteOffset": 2097024,
      "componentType": 5126,
      "count": 10704,
      "max": [
        0.9999983906745911,
        0.999259352684021,
        0.9969416260719299,
        1.0
      ],
      "min": [
        -0.999990701675415,
        -0.9998566508293152,
        -0.9988394379615784,
        1.0
      ],
      "type": "VEC4"
    },
    {
      "bufferView": 1,
      "byteOffset": 1048512,
      "componentType": 5126,
      "count": 10704,
      "max": [
        0.9935950040817261,
        0.9840829968452454
      ],
      "min": [
        0.009603000245988369,
        0.0407710000872612
      ],
      "type": "VEC2"
    },
    {
      "bufferView": 0,
      "byteOffset": 2890392,
      "componentType": 5125,
      "count": 48915,
      "type": "SCALAR"
    }
  ],
  "asset": {
    "extras": {
      "author": "Lassi Kaukonen (https://sketchfab.com/thesidekick)",
      "license": "CC-BY-4.0 (http://creativecommons.org/licenses/by/4.0/)",
      "source": "https://sketchfab.com/3d-models/casio-mt-55-e9c8b1cef28b498fba9282f91fb519ba",
      "title": "Casio MT-55"
    },
    "generator": "Sketchfab-12.68.0",
    "version": "2.0"
  },
  "bufferViews": [
    {
      "buffer": 0,
      "byteLength": 3086052,
      "name": "floatBufferViews",
      "target": 34963
    },
    {
      "buffer": 0,
      "byteLength": 1134144,
      "byteOffset": 3086052,
      "byteStride": 8,
      "name": "floatBufferViews",
      "target": 34962
    },
    {
      "buffer": 0,
      "byteLength": 3402432,
      "byteOffset": 4220196,
      "byteStride": 12,
      "name": "floatBufferViews",
      "target": 34962
    },
    {
      "buffer": 0,
      "byteLength": 2268288,
      "byteOffset": 7622628,
      "byteStride": 16,
      "name": "floatBufferViews",
      "target": 34962
    }
  ],
  "buffers": [
    {
      "byteLength": 9890916,
      "uri": "scene.bin"
    }
  ],
  "images": [
    {
      "uri": "textures/Casio_mt-55_baseColor.jpeg"
    },
    {
      "uri": "textures/Casio_mt-55_metallicRoughness.png"
    },
    {
      "uri": "textures/Casio_mt-55_normal.png"
    }
  ],
  "materials": [
    {
      "doubleSided": true,
      "name": "Casio_mt-55",
      "normalTexture": {
        "index": 2
      },
      "occlusionTexture": {
        "index": 1
      },
      "pbrMetallicRoughness": {
        "baseColorTexture": {
          "index": 0
        },
        "metallicFactor": 0.0,
        "metallicRoughnessTexture": {
          "index": 1
        }
      }
    }
  ],
  "meshes": [
    {
      "name": "Object_0",
      "primitives": [
        {
          "attributes": {
            "NORMAL": 1,
            "POSITION": 0,
            "TANGENT": 2,
            "TEXCOORD_0": 3
          },
          "indices": 4,
          "material": 0,
          "mode": 4
        }
      ]
    },
    {
      "name": "Object_1",
      "primitives": [
        {
          "attributes": {
            "NORMAL": 6,
            "POSITION": 5,
            "TANGENT": 7,
            "TEXCOORD_0": 8
          },
          "indices": 9,
          "material": 0,
          "mode": 4
        }
      ]
    },
    {
      "name": "Object_2",
      "primitives": [
        {
          "attributes": {
            "NORMAL": 11,
            "POSITION": 10,
            "TANGENT": 12,
            "TEXCOORD_0": 13
          },
          "indices": 14,
          "material": 0,
          "mode": 4
        }
      ]
    }
  ],
  "nodes": [
    {
      "children": [
        1
      ],
      "matrix": [
        1.0,
        0.0,
        0.0,
        0.0,
        0.0,
        2.220446049250313e-16,
        -1.0,
        0.0,
        0.0,
        1.0,
        2.220446049250313e-16,
        0.0,
        0.0,
        0.0,
        0.0,
        1.0
      ],
      "name": "Sketchfab_model"
    },
    {
      "children": [
        2,
        3,
        4
      ],
      "name": "Casio_mt-55_SF.obj.cleaner.materialmerger.gles"
    },
    {
      "mesh": 0,
      "name": "Object_2"
    },
    {
      "mesh": 1,
      "name": "Object_3"
    },
    {
      "mesh": 2,
      "name": "Object_4"
    }
  ],
  "samplers": [
    {
      "magFilter": 9729,
      "minFilter": 9987,
      "wrapS": 10497,
      "wrapT": 10497
    }
  ],
  "scene": 0,
  "scenes": [
    {
      "name": "Sketchfab_Scene",
      "nodes": [
        0
      ]
    }
  ],
  "textures": [
    {
      "sampler": 0,
      "source": 0
    },
    {
      "sampler": 0,
      "source": 1
    },
    {
      "sampler": 0,
      "source": 2
    }
  ]
}
